<svg width="64" height="64" viewBox="0 0 64 64" fill="none" xmlns="http://www.w3.org/2000/svg">
<path d="M52.0307 24.2185H59.7211C61.6312 24.2185 63.185 22.6648 63.185 20.7546V5.13014C63.185 3.22047 61.6312 1.66676 59.7211 1.66676H52.0307C50.4823 1.66676 49.1837 2.6941 48.7414 4.0984L41.4403 1.33863C35.974 -0.711661 29.7973 -0.373282 24.6112 2.24488L8.87929 10.1765C6.84213 11.2111 6.10285 13.6264 6.97695 15.5794C7.89706 17.6284 10.3087 18.5883 12.3974 17.6502L24.724 12.1633C24.4324 14.6757 26.3826 16.865 28.8725 16.865H36.2572C38.5028 16.865 40.7299 17.4587 42.6952 18.5803C44.4872 19.6106 46.5019 20.2307 48.5668 20.447V20.7546C48.5668 22.6648 50.1205 24.2185 52.0307 24.2185ZM50.5668 5.13014C50.5668 4.32301 51.2235 3.66676 52.0307 3.66676H59.7211C60.5282 3.66676 61.185 4.32301 61.185 5.13014V20.7546C61.185 21.5623 60.5282 22.2185 59.7211 22.2185H52.0307C51.2235 22.2185 50.5668 21.5623 50.5668 20.7546V5.13014ZM48.5658 18.4617C46.85 18.2542 45.1825 17.7029 43.6889 16.845C41.4198 15.5496 38.85 14.865 36.2572 14.865H28.8725C27.6718 14.865 26.6952 13.8767 26.6952 12.6609C26.6952 12.072 26.9213 11.5173 27.3256 11.1067C27.4198 11.0125 27.527 10.9255 27.64 10.844C27.9992 10.5916 28.4249 10.4568 28.8725 10.4568H39.8046C40.3568 10.4568 40.8046 10.0095 40.8046 9.4568C40.8046 8.90504 40.3568 8.4568 39.8046 8.4568H28.8725C28.0629 8.4568 27.2912 8.69459 26.6222 9.12916L11.5809 15.824C10.5243 16.2976 9.27822 15.8211 8.80165 14.761C8.67861 14.4856 8.61611 14.1878 8.61611 13.8757C8.61611 13.0603 9.06435 12.3259 9.78261 11.9607L25.5121 4.03004C30.2055 1.6609 35.7914 1.35621 40.7357 3.21021L48.5658 6.16969V18.4617Z" fill="black"/>
<path d="M55.8691 21.1091C57.625 21.1091 59.0537 19.6863 59.0537 17.9382C59.0537 16.1892 57.625 14.7668 55.8691 14.7668C54.1206 14.7668 52.6982 16.1892 52.6982 17.9382C52.6982 19.6863 54.1206 21.1091 55.8691 21.1091ZM55.8691 16.7668C56.5225 16.7668 57.0537 17.2922 57.0537 17.9382C57.0537 18.5837 56.5225 19.1091 55.8691 19.1091C55.2236 19.1091 54.6982 18.5837 54.6982 17.9382C54.6982 17.2922 55.2236 16.7668 55.8691 16.7668Z" fill="black"/>
<path d="M0.814941 58.8494C0.814941 60.7595 2.36865 62.3132 4.27881 62.3132H11.9692C13.5176 62.3132 14.8162 61.2854 15.2585 59.8811L22.5591 62.6409C24.9458 63.5359 27.4331 63.99 29.9517 63.99C33.2031 63.99 36.4668 63.2097 39.3887 61.7351L55.1206 53.8035C57.159 52.7668 57.8965 50.3519 57.0229 48.4001C56.0901 46.3237 53.6654 45.4023 51.6025 46.3298L39.2759 51.8162C39.5677 49.3021 37.6152 47.115 35.1274 47.115H27.7427C25.4971 47.115 23.27 46.5212 21.3047 45.3992C19.5122 44.3689 17.4976 43.7488 15.4331 43.5325V43.2244C15.4331 41.3147 13.8794 39.7605 11.9692 39.7605H4.27881C2.36865 39.7605 0.814941 41.3147 0.814941 43.2244V58.8494ZM15.4341 45.5183C17.1494 45.7253 18.8169 46.2761 20.311 47.1345C22.5801 48.4304 25.1499 49.115 27.7427 49.115H35.1274C36.3281 49.115 37.3047 50.1033 37.3047 51.3186C37.3047 51.908 37.0786 52.4622 36.6729 52.8738C36.5791 52.968 36.4724 53.0544 36.3596 53.1355C36.0005 53.3884 35.5747 53.5222 35.1274 53.5222H24.1953C23.6431 53.5222 23.1953 53.9705 23.1953 54.5222C23.1953 55.075 23.6431 55.5222 24.1953 55.5222H35.1274C35.937 55.5222 36.7087 55.2849 37.3777 54.8503L52.4189 48.155C53.7914 47.5377 55.3838 48.5345 55.3838 50.1038C55.3838 50.9197 54.9355 51.6536 54.2173 52.0188L38.4878 59.949C33.7954 62.3186 28.21 62.6238 23.2637 60.7693L15.4341 57.8093V45.5183ZM2.81494 43.2244C2.81494 42.4177 3.47168 41.7605 4.27881 41.7605H11.9692C12.7764 41.7605 13.4331 42.4177 13.4331 43.2244V58.8494C13.4331 59.6565 12.7764 60.3132 11.9692 60.3132H4.27881C3.47168 60.3132 2.81494 59.6565 2.81494 58.8494V43.2244Z" fill="black"/>
<path d="M8.13086 49.2126C9.87939 49.2126 11.3018 47.7903 11.3018 46.0417C11.3018 44.2932 9.87939 42.8708 8.13086 42.8708C6.37451 42.8708 4.9458 44.2932 4.9458 46.0417C4.9458 47.7903 6.37451 49.2126 8.13086 49.2126ZM8.13086 44.8708C8.77637 44.8708 9.30176 45.3962 9.30176 46.0417C9.30176 46.6873 8.77637 47.2126 8.13086 47.2126C7.47754 47.2126 6.9458 46.6873 6.9458 46.0417C6.9458 45.3962 7.47754 44.8708 8.13086 44.8708Z" fill="black"/>
<path d="M41.7548 24.5662C40.8051 24.429 39.9462 24.0212 39.2641 23.3796C38.6039 22.7703 38.1781 21.9988 38.0331 21.1477C37.87 20.1931 37.0561 19.5007 36.0976 19.5007H28.0644C27.1064 19.5007 26.2929 20.1931 26.1298 21.1462C25.8261 22.9124 24.33 24.2869 22.4062 24.5657C21.412 24.7097 20.685 25.5652 20.7148 26.5554C20.9511 34.5564 24.3012 38.8064 29.6313 43.0696L30.8559 44.0486C31.581 44.627 32.5931 44.6252 33.3178 44.0447L34.5316 43.0691C39.8612 38.8059 43.2113 34.5564 43.4477 26.5564C43.4774 25.5652 42.7494 24.7097 41.7548 24.5662C41.7553 24.5662 41.7548 24.5662 41.7548 24.5662ZM33.2807 41.5085L32.1039 42.4856L30.8798 41.5076C25.8705 37.5002 22.9281 33.7595 22.6933 26.5452C25.477 26.1414 27.6498 24.1077 28.0644 21.5007L36.0614 21.4841C36.2816 22.7751 36.9203 23.9387 37.9013 24.8425C38.8715 25.7556 40.0971 26.343 41.4472 26.5422C41.2221 33.7751 38.2816 37.5085 33.2807 41.5085Z" fill="black"/>
<path d="M37.0015 28.6174C36.733 28.135 36.1231 27.9617 35.6412 28.2302L33.0816 29.6545V26.9402C33.0816 26.3875 32.6339 25.9402 32.0816 25.9402C31.5294 25.9402 31.0816 26.3875 31.0816 26.9402V29.655L28.5216 28.2302C28.0401 27.9617 27.4303 28.135 27.1612 28.6174C26.8927 29.1003 27.0665 29.7087 27.5489 29.9773L30.025 31.3557L27.5489 32.7341C27.0665 33.0027 26.8927 33.6111 27.1612 34.094C27.3443 34.4226 27.6851 34.6082 28.0362 34.6082C28.2008 34.6082 28.3678 34.5671 28.5216 34.4812L31.0816 33.0564V35.7712C31.0816 36.324 31.5294 36.7712 32.0816 36.7712C32.6339 36.7712 33.0816 36.324 33.0816 35.7712V33.0569L35.6412 34.4812C35.795 34.5671 35.962 34.6082 36.1265 34.6082C36.4776 34.6082 36.8184 34.4226 37.0015 34.094C37.2701 33.6111 37.0963 33.0027 36.6138 32.7341L34.1378 31.3557L36.6138 29.9773C37.0963 29.7087 37.2701 29.1003 37.0015 28.6174Z" fill="black"/>
</svg>
